<mxfile host="Electron" agent="Mozilla/5.0 (Windows NT 10.0; Win64; x64) AppleWebKit/537.36 (KHTML, like Gecko) draw.io/26.0.4 Chrome/128.0.6613.186 Electron/32.2.5 Safari/537.36" version="26.0.4">
  <diagram name="Page-1" id="zOEEpCLVx3BSE4MT3N1Z">
    <mxGraphModel dx="1020" dy="496" grid="1" gridSize="10" guides="1" tooltips="1" connect="1" arrows="1" fold="1" page="1" pageScale="1" pageWidth="827" pageHeight="1169" math="0" shadow="0">
      <root>
        <mxCell id="0" />
        <mxCell id="1" parent="0" />
        <mxCell id="_eB5BenDUcCew26t4jTj-250" value="" style="shape=umlLifeline;perimeter=lifelinePerimeter;whiteSpace=wrap;html=1;container=1;dropTarget=0;collapsible=0;recursiveResize=0;outlineConnect=0;portConstraint=eastwest;newEdgeStyle={&quot;curved&quot;:0,&quot;rounded&quot;:0};participant=umlActor;" parent="1" vertex="1">
          <mxGeometry x="70" y="190" width="20" height="440" as="geometry" />
        </mxCell>
        <mxCell id="_eB5BenDUcCew26t4jTj-251" value="" style="html=1;points=[[0,0,0,0,5],[0,1,0,0,-5],[1,0,0,0,5],[1,1,0,0,-5]];perimeter=orthogonalPerimeter;outlineConnect=0;targetShapes=umlLifeline;portConstraint=eastwest;newEdgeStyle={&quot;curved&quot;:0,&quot;rounded&quot;:0};" parent="_eB5BenDUcCew26t4jTj-250" vertex="1">
          <mxGeometry x="5" y="50" width="10" height="360" as="geometry" />
        </mxCell>
        <mxCell id="_eB5BenDUcCew26t4jTj-252" value="Moderatore" style="text;html=1;align=center;verticalAlign=middle;whiteSpace=wrap;rounded=0;" parent="1" vertex="1">
          <mxGeometry x="50" y="160" width="60" height="30" as="geometry" />
        </mxCell>
        <mxCell id="_eB5BenDUcCew26t4jTj-253" value="clickOnApprove()" style="html=1;verticalAlign=bottom;endArrow=block;curved=0;rounded=0;exitX=0.8;exitY=0.166;exitDx=0;exitDy=0;exitPerimeter=0;" parent="1" target="_eB5BenDUcCew26t4jTj-255" edge="1">
          <mxGeometry width="80" relative="1" as="geometry">
            <mxPoint x="84" y="299.76" as="sourcePoint" />
            <mxPoint x="240" y="300" as="targetPoint" />
          </mxGeometry>
        </mxCell>
        <mxCell id="_eB5BenDUcCew26t4jTj-254" value=":Moderator_Page_Boundary" style="shape=umlLifeline;perimeter=lifelinePerimeter;whiteSpace=wrap;html=1;container=1;dropTarget=0;collapsible=0;recursiveResize=0;outlineConnect=0;portConstraint=eastwest;newEdgeStyle={&quot;curved&quot;:0,&quot;rounded&quot;:0};" parent="1" vertex="1">
          <mxGeometry x="170" y="190" width="160" height="300" as="geometry" />
        </mxCell>
        <mxCell id="_eB5BenDUcCew26t4jTj-255" value="" style="html=1;points=[[0,0,0,0,5],[0,1,0,0,-5],[1,0,0,0,5],[1,1,0,0,-5]];perimeter=orthogonalPerimeter;outlineConnect=0;targetShapes=umlLifeline;portConstraint=eastwest;newEdgeStyle={&quot;curved&quot;:0,&quot;rounded&quot;:0};" parent="_eB5BenDUcCew26t4jTj-254" vertex="1">
          <mxGeometry x="75" y="85" width="10" height="185" as="geometry" />
        </mxCell>
        <mxCell id="_eB5BenDUcCew26t4jTj-256" value="" style="shape=umlDestroy;whiteSpace=wrap;html=1;strokeWidth=3;targetShapes=umlLifeline;" parent="_eB5BenDUcCew26t4jTj-254" vertex="1">
          <mxGeometry x="65" y="250" width="30" height="30" as="geometry" />
        </mxCell>
        <mxCell id="_eB5BenDUcCew26t4jTj-257" value="approveReview(recensione)" style="html=1;verticalAlign=bottom;endArrow=block;curved=0;rounded=0;" parent="1" source="_eB5BenDUcCew26t4jTj-255" target="_eB5BenDUcCew26t4jTj-259" edge="1">
          <mxGeometry width="80" relative="1" as="geometry">
            <mxPoint x="260" y="320" as="sourcePoint" />
            <mxPoint x="400" y="320" as="targetPoint" />
            <Array as="points">
              <mxPoint x="310" y="310" />
            </Array>
          </mxGeometry>
        </mxCell>
        <mxCell id="_eB5BenDUcCew26t4jTj-258" value=":Moderator_Control" style="shape=umlLifeline;perimeter=lifelinePerimeter;whiteSpace=wrap;html=1;container=1;dropTarget=0;collapsible=0;recursiveResize=0;outlineConnect=0;portConstraint=eastwest;newEdgeStyle={&quot;curved&quot;:0,&quot;rounded&quot;:0};" parent="1" vertex="1">
          <mxGeometry x="350" y="190" width="120" height="300" as="geometry" />
        </mxCell>
        <mxCell id="_eB5BenDUcCew26t4jTj-259" value="" style="html=1;points=[[0,0,0,0,5],[0,1,0,0,-5],[1,0,0,0,5],[1,1,0,0,-5]];perimeter=orthogonalPerimeter;outlineConnect=0;targetShapes=umlLifeline;portConstraint=eastwest;newEdgeStyle={&quot;curved&quot;:0,&quot;rounded&quot;:0};" parent="_eB5BenDUcCew26t4jTj-258" vertex="1">
          <mxGeometry x="55" y="100" width="10" height="180" as="geometry" />
        </mxCell>
        <mxCell id="_eB5BenDUcCew26t4jTj-260" value="approvaRecensione(recensione)" style="html=1;verticalAlign=bottom;endArrow=block;curved=0;rounded=0;" parent="1" edge="1">
          <mxGeometry width="80" relative="1" as="geometry">
            <mxPoint x="414" y="350" as="sourcePoint" />
            <mxPoint x="729" y="350" as="targetPoint" />
          </mxGeometry>
        </mxCell>
        <mxCell id="_eB5BenDUcCew26t4jTj-263" value="getAllRecensioniSegnalate()" style="html=1;verticalAlign=bottom;endArrow=block;curved=0;rounded=0;" parent="1" target="_eB5BenDUcCew26t4jTj-265" edge="1">
          <mxGeometry width="80" relative="1" as="geometry">
            <mxPoint x="420" y="370" as="sourcePoint" />
            <mxPoint x="700" y="370" as="targetPoint" />
          </mxGeometry>
        </mxCell>
        <mxCell id="_eB5BenDUcCew26t4jTj-264" value=":Catalogo_Recensioni" style="shape=umlLifeline;perimeter=lifelinePerimeter;whiteSpace=wrap;html=1;container=1;dropTarget=0;collapsible=0;recursiveResize=0;outlineConnect=0;portConstraint=eastwest;newEdgeStyle={&quot;curved&quot;:0,&quot;rounded&quot;:0};" parent="1" vertex="1">
          <mxGeometry x="670" y="190" width="130" height="300" as="geometry" />
        </mxCell>
        <mxCell id="_eB5BenDUcCew26t4jTj-265" value="" style="html=1;points=[[0,0,0,0,5],[0,1,0,0,-5],[1,0,0,0,5],[1,1,0,0,-5]];perimeter=orthogonalPerimeter;outlineConnect=0;targetShapes=umlLifeline;portConstraint=eastwest;newEdgeStyle={&quot;curved&quot;:0,&quot;rounded&quot;:0};" parent="_eB5BenDUcCew26t4jTj-264" vertex="1">
          <mxGeometry x="60" y="150" width="10" height="80" as="geometry" />
        </mxCell>
        <mxCell id="_eB5BenDUcCew26t4jTj-266" value="recensioniSegnalate" style="html=1;verticalAlign=bottom;endArrow=open;dashed=1;endSize=8;curved=0;rounded=0;" parent="1" target="_eB5BenDUcCew26t4jTj-259" edge="1">
          <mxGeometry relative="1" as="geometry">
            <mxPoint x="730" y="400" as="sourcePoint" />
            <mxPoint x="650" y="400" as="targetPoint" />
          </mxGeometry>
        </mxCell>
        <mxCell id="_eB5BenDUcCew26t4jTj-267" value=":Moderator_Page" style="shape=umlLifeline;perimeter=lifelinePerimeter;whiteSpace=wrap;html=1;container=1;dropTarget=0;collapsible=0;recursiveResize=0;outlineConnect=0;portConstraint=eastwest;newEdgeStyle={&quot;curved&quot;:0,&quot;rounded&quot;:0};" parent="1" vertex="1">
          <mxGeometry x="830" y="440" width="100" height="300" as="geometry" />
        </mxCell>
        <mxCell id="_eB5BenDUcCew26t4jTj-268" value="" style="html=1;points=[[0,0,0,0,5],[0,1,0,0,-5],[1,0,0,0,5],[1,1,0,0,-5]];perimeter=orthogonalPerimeter;outlineConnect=0;targetShapes=umlLifeline;portConstraint=eastwest;newEdgeStyle={&quot;curved&quot;:0,&quot;rounded&quot;:0};" parent="_eB5BenDUcCew26t4jTj-267" vertex="1">
          <mxGeometry x="45" y="60" width="10" height="80" as="geometry" />
        </mxCell>
        <mxCell id="_eB5BenDUcCew26t4jTj-269" value="createModeratorPage(recensioniSegnalate)" style="html=1;verticalAlign=bottom;endArrow=block;curved=0;rounded=0;entryX=0;entryY=0.033;entryDx=0;entryDy=0;entryPerimeter=0;" parent="1" source="_eB5BenDUcCew26t4jTj-259" target="_eB5BenDUcCew26t4jTj-267" edge="1">
          <mxGeometry width="80" relative="1" as="geometry">
            <mxPoint x="420" y="460" as="sourcePoint" />
            <mxPoint x="500" y="460" as="targetPoint" />
          </mxGeometry>
        </mxCell>
      </root>
    </mxGraphModel>
  </diagram>
</mxfile>
